<svg xmlns="http://www.w3.org/2000/svg" width="24" height="26" viewBox="0 0 24 26" fill="none">
<path d="M21.2211 10.6632H19.1495C19.3179 11.2967 19.4021 11.9301 19.4021 12.5636C19.4021 13.6193 19.2084 14.6223 18.8211 15.5725C18.4337 16.5227 17.9032 17.3497 17.2295 18.0535C16.5558 18.7574 15.7642 19.3117 14.8547 19.7164C13.9453 20.1211 12.9853 20.3234 11.9747 20.3234C10.9642 20.3234 10.0126 20.1211 9.12 19.7164C8.22737 19.3117 7.44421 18.7574 6.77053 18.0535C6.09684 17.3497 5.56632 16.5227 5.17895 15.5725C4.79158 14.6223 4.59789 13.6193 4.59789 12.5636C4.59789 11.9301 4.68211 11.2967 4.85053 10.6632H2.72842V21.2736C2.72842 21.5552 2.82105 21.7839 3.00632 21.9599C3.19158 22.1358 3.41895 22.2238 3.68842 22.2238H20.3116C20.5811 22.2238 20.8 22.1358 20.9684 21.9599C21.1368 21.7839 21.2211 21.5552 21.2211 21.2736V10.6632ZM21.2211 3.90632C21.2211 3.62479 21.1368 3.38724 20.9684 3.19368C20.8 3.00013 20.5811 2.90335 20.3116 2.90335H17.5326C17.2632 2.90335 17.0442 3.00013 16.8758 3.19368C16.7074 3.38724 16.6232 3.62479 16.6232 3.90632V6.75688C16.6232 7.03842 16.7074 7.27597 16.8758 7.46952C17.0442 7.66308 17.2632 7.75986 17.5326 7.75986H20.3116C20.5811 7.75986 20.8 7.66308 20.9684 7.46952C21.1368 7.27597 21.2211 7.03842 21.2211 6.75688V3.90632ZM11.9747 7.75986C10.6947 7.75986 9.60842 8.22615 8.71579 9.15874C7.82316 10.0913 7.37684 11.2263 7.37684 12.5636C7.37684 13.2322 7.49474 13.8657 7.73053 14.464C7.96632 15.0622 8.29474 15.5813 8.71579 16.0212C9.13684 16.4611 9.62526 16.8042 10.1811 17.0506C10.7368 17.2969 11.3347 17.4201 11.9747 17.4201C12.6147 17.4201 13.2211 17.2969 13.7937 17.0506C14.3663 16.8042 14.8632 16.4611 15.2842 16.0212C15.7053 15.5813 16.0337 15.0622 16.2695 14.464C16.5053 13.8657 16.6232 13.2322 16.6232 12.5636C16.6232 11.8949 16.5053 11.2703 16.2695 10.6896C16.0337 10.1089 15.7053 9.59864 15.2842 9.15874C14.8632 8.71884 14.3663 8.37572 13.7937 8.12937C13.2211 7.88303 12.6147 7.75986 11.9747 7.75986ZM2.72842 25.1272C1.95368 25.1272 1.30526 24.8456 0.783158 24.2825C0.261053 23.7195 0 23.0332 0 22.2238V2.90335C0 2.09393 0.261053 1.40768 0.783158 0.84461C1.30526 0.281537 1.95368 0 2.72842 0H21.2211C21.9958 0 22.6526 0.281537 23.1916 0.84461C23.7305 1.40768 24 2.09393 24 2.90335V22.2238C24 23.0332 23.7305 23.7195 23.1916 24.2825C22.6526 24.8456 21.9958 25.1272 21.2211 25.1272H2.72842Z" fill="black"/>
</svg>